<?xml version="1.0" encoding="UTF-8"?>
<svg id="_Слой_2" data-name="Слой 2" xmlns="http://www.w3.org/2000/svg" viewBox="0 0 700.12 700.12">
  <defs>
    <style>
      .cls-1 {
        fill: #fff;
      }

      .cls-2 {
        fill: #f6f6f6;
      }

      .cls-3 {
        fill: #1b1b1b;
      }

      .cls-4 {
        stroke-width: 22px;
      }

      .cls-4, .cls-5 {
        fill: none;
        stroke: #fff;
        stroke-miterlimit: 10;
      }

      .cls-5 {
        stroke-width: 21px;
      }
    </style>
  </defs>
  <circle class="cls-3" cx="350.06" cy="350.06" r="350.06"/>
  <g>
    <path class="cls-1" d="m436.26,106.31c27.67,0,50.18,22.51,50.18,50.18s-22.51,50.18-50.18,50.18-50.18-22.51-50.18-50.18,22.51-50.18,50.18-50.18m0-19c-38.21,0-69.18,30.97-69.18,69.18s30.97,69.18,69.18,69.18,69.18-30.97,69.18-69.18-30.97-69.18-69.18-69.18h0Z"/>
    <path class="cls-1" d="m436.85,143.75c7.35,0,13.34,5.98,13.34,13.34s-5.98,13.34-13.34,13.34-13.34-5.98-13.34-13.34,5.98-13.34,13.34-13.34m0-12c-13.99,0-25.34,11.34-25.34,25.34s11.34,25.34,25.34,25.34,25.34-11.34,25.34-25.34-11.34-25.34-25.34-25.34h0Z"/>
    <path class="cls-1" d="m362.19,271.47c33.99,0,61.64,27.65,61.64,61.64s-27.65,61.64-61.64,61.64-61.64-27.65-61.64-61.64,27.65-61.64,61.64-61.64m0-25c-47.85,0-86.64,38.79-86.64,86.64s38.79,86.64,86.64,86.64,86.64-38.79,86.64-86.64-38.79-86.64-86.64-86.64h0Z"/>
    <g>
      <path class="cls-2" d="m362.19,346.25c-7.24,0-13.13-5.89-13.13-13.13s5.89-13.13,13.13-13.13,13.13,5.89,13.13,13.13-5.89,13.13-13.13,13.13Z"/>
      <path class="cls-1" d="m362.19,332.48c.35,0,.63.28.63.63s-.28.63-.63.63-.63-.28-.63-.63.28-.63.63-.63m0-25c-14.16,0-25.63,11.48-25.63,25.63s11.48,25.63,25.63,25.63,25.63-11.48,25.63-25.63-11.48-25.63-25.63-25.63h0Z"/>
    </g>
    <path class="cls-1" d="m506.57,446.93c20,0,36.27,16.27,36.27,36.27s-16.27,36.27-36.27,36.27-36.27-16.27-36.27-36.27,16.27-36.27,36.27-36.27m0-16c-28.87,0-52.27,23.4-52.27,52.27s23.4,52.27,52.27,52.27,52.27-23.4,52.27-52.27-23.4-52.27-52.27-52.27h0Z"/>
    <path class="cls-1" d="m505.44,471.33c-6.56,0-11.87,5.32-11.87,11.87s5.32,11.87,11.87,11.87,11.87-5.32,11.87-11.87-5.32-11.87-11.87-11.87h0Z"/>
    <circle class="cls-1" cx="390.23" cy="591.2" r="46.03"/>
    <circle class="cls-1" cx="251.68" cy="511.52" r="28.31"/>
    <circle class="cls-1" cx="251.99" cy="210.72" r="21.63"/>
    <circle class="cls-1" cx="564.41" cy="266.6" r="28.31"/>
    <line class="cls-5" x1="416.72" y1="206.03" x2="387.82" y2="266.6"/>
    <line class="cls-4" x1="407" y1="380.4" x2="483" y2="456.4"/>
    <line class="cls-5" x1="473.79" y1="513.66" x2="418.46" y2="566.01"/>
    <line class="cls-5" x1="295.42" y1="333.11" x2="213.58" y2="333.11"/>
    <path class="cls-1" d="m150.91,277.64c30.59,0,55.47,24.89,55.47,55.47s-24.89,55.47-55.47,55.47-55.47-24.89-55.47-55.47,24.89-55.47,55.47-55.47m0-21c-42.23,0-76.47,34.24-76.47,76.47s34.24,76.47,76.47,76.47,76.47-34.24,76.47-76.47-34.24-76.47-76.47-76.47h0Z"/>
  </g>
</svg>